<?xml version="1.0" encoding="utf-8"?>
<!-- Generator: Adobe Illustrator 18.0.0, SVG Export Plug-In . SVG Version: 6.00 Build 0)  -->
<!DOCTYPE svg PUBLIC "-//W3C//DTD SVG 1.1//EN" "http://www.w3.org/Graphics/SVG/1.1/DTD/svg11.dtd">
<svg version="1.1" id="Слой_1" xmlns="http://www.w3.org/2000/svg" xmlns:xlink="http://www.w3.org/1999/xlink" x="0px" y="0px"
	 viewBox="0 0 1728 283.5" enable-background="new 0 0 1728 283.5" xml:space="preserve">
<path fill="#FFFFFF" d="M91.2,44c0-12,9.8-21.7,21.7-21.7h63.6c12,0,21.7,9.8,21.7,21.7c0,10-6.7,18.4-15.9,20.9v37
	c0,0.4,0,0.7-0.1,1.1l-5.3,28.5c-1.8,9.8-8.5,16.1-17.1,16.1h-30.3c-8.5,0-15.2-6.3-17.1-16.1l-5.3-28.5c-0.1-0.4-0.1-0.7-0.1-1.1
	v-37C97.9,62.3,91.2,53.9,91.2,44z M170.7,97.5h-51.9v3.9l5.2,28c0.2,1.1,1.4,6.6,5.6,6.6h30.3c4.1,0,5.4-5.5,5.6-6.6l5.2-28
	L170.7,97.5L170.7,97.5z M170.7,65.7h-51.9v20.1h51.9V65.7z M102.9,44c0,5.5,4.5,10.1,10.1,10.1h0h63.6c5.5,0,10.1-4.5,10.1-10.1
	s-4.5-10.1-10.1-10.1h-63.6C107.4,33.9,102.9,38.4,102.9,44z M194.5,206.9c-3.2,0-5.8,2.6-5.8,5.8v36.8h-87.9v-36.8
	c0-3.2-2.6-5.8-5.8-5.8s-5.8,2.6-5.8,5.8v42.6c0,3.2,2.6,5.8,5.8,5.8h99.6c3.2,0,5.8-2.6,5.8-5.8v-42.6
	C200.4,209.5,197.7,206.9,194.5,206.9z M224.9,185.6L184,154.5c-2.6-2-6.2-1.5-8.2,1.1c-2,2.6-1.5,6.2,1.1,8.2l38.5,29.4v62.2
	c0,3.2,2.6,5.8,5.8,5.8s5.8-2.6,5.8-5.8v-65.1C227.2,188.5,226.3,186.7,224.9,185.6L224.9,185.6z M128.3,203.8 M161.2,203.8
	 M113.7,155.6c-2-2.6-5.6-3.1-8.2-1.1l-40.9,31.1c-1.5,1.1-2.3,2.8-2.3,4.6v65.1c0,3.2,2.6,5.8,5.8,5.8s5.8-2.6,5.8-5.8v-62.2
	l38.6-29.4C115.1,161.9,115.6,158.2,113.7,155.6L113.7,155.6z"/>
<path fill="#00CCFF" d="M138.9,195.6v-19.7c-6.8-2.4-11.6-8.9-11.6-16.5c0-3.2,2.6-5.8,5.8-5.8s5.8,2.6,5.8,5.8
	c0,3.2,2.6,5.8,5.8,5.8c3.2,0,5.8-2.6,5.8-5.8c0-3.2,2.6-5.8,5.8-5.8s5.8,2.6,5.8,5.8c0,7.6-4.9,14.1-11.6,16.5v19.7
	c0,3.2-2.6,5.8-5.8,5.8S138.9,198.9,138.9,195.6z"/>
<path fill="#00CCFF" d="M122.4,226.4c-3.2,0-5.8,2.6-5.8,5.8v1.1c0,3.2,2.6,5.8,5.8,5.8s5.8-2.6,5.8-5.8v-1.1
	C128.3,229,125.7,226.4,122.4,226.4z"/>
<path fill="#00CCFF" d="M128.3,204.1c0-3.2-2.6-5.8-5.8-5.8s-5.8,2.6-5.8,5.8v1.1c0,3.2,2.6,5.8,5.8,5.8s5.8-2.6,5.8-5.8V204.1"/>
<path fill="#00CCFF" d="M167,239.2c3.2,0,5.8-2.6,5.8-5.8v-1.1c0-3.2-2.6-5.8-5.8-5.8s-5.8,2.6-5.8,5.8v1.1
	C161.2,236.5,163.8,239.2,167,239.2z"/>
<path fill="#00CCFF" d="M161.2,204.1v1.1c0,3.2,2.6,5.8,5.8,5.8s5.8-2.6,5.8-5.8v-1.1c0-3.2-2.6-5.8-5.8-5.8
	S161.2,200.9,161.2,204.1"/>
<g>
	<g>
		<path fill="#FFFFFF" d="M481.3,68.9c-13.7-18.6-34.8-31.1-58.4-31.1c-38.5,0-70.8,31.1-70.8,70.8l0,0
			c-21.1,13.7-33.6,36-33.6,60.9c0,39.8,32.3,73.3,73.3,73.3c28.6,0,53.4-17.4,65.9-42.3c6.2,2.5,13.7,3.7,19.9,3.7
			c37.3,0,68.4-31.1,68.4-68.4C545.9,100,517.3,70.2,481.3,68.9z M477.5,192c-7.5,0-14.9-1.2-21.1-3.7l0,0l0,0h-1.2h-1.2h-1.2h-1.2
			c0,0-1.2,0-1.2,1.2c0,0-1.2,0-1.2,1.2c0,0,0,1.2-1.2,1.2c0,0,0,0,0,1.2l0,0l0,0c-8.7,23.6-31.1,39.8-57.2,39.8
			c-33.6,0-60.9-27.3-60.9-60.9c0-21.1,12.4-42.3,31.1-52.2l0,0c0,0,1.2,0,1.2-1.2v-1.2v-1.2v-1.2c0,0,0,0,0-1.2l0,0l0,0
			c0-1.2,0-1.2,0-2.5c0-32.3,26.1-58.4,58.4-58.4c19.9,0,38.5,9.9,49.7,27.3c1.2,2.5,3.7,2.5,5,2.5l0,0c31.1,0,55.9,24.9,55.9,55.9
			C533.5,167.1,508.6,192,477.5,192z"/>
		<path fill="#FFFFFF" d="M427.8,67.7c-28.6,0-51,23.6-51,51s23.6,51,51,51s51-23.6,51-51S456.4,67.7,427.8,67.7z M427.8,158.4
			c-21.1,0-38.5-17.4-38.5-38.5s17.4-39.8,38.5-39.8s38.5,17.4,38.5,38.5S448.9,158.4,427.8,158.4z"/>
	</g>
</g>
<path fill="#00CCFF" d="M374.6,167.9c-2.5-2.5-6.2-2.5-8.7,0s-2.5,6.2,0,8.7l2.5,2.5c1.2,1.2,2.5,1.2,5,1.2s3.7,0,5-1.2
	c2.5-2.5,2.5-6.2,0-8.7L374.6,167.9z"/>
<path fill="#00CCFF" d="M349.8,167.9c-2.5-2.5-6.2-2.5-8.7,0c-2.5,2.5-2.5,6.2,0,8.7l2.5,2.5c1.2,1.2,2.5,1.2,5,1.2
	c2.5,0,3.7,0,5-1.2c2.5-2.5,2.5-6.2,0-8.7L349.8,167.9z"/>
<path fill="#00CCFF" d="M399.5,192.8c-2.5-2.5-6.2-2.5-8.7,0c-2.5,2.5-2.5,6.2,0,8.7l2.5,2.5c1.2,1.2,2.5,1.2,5,1.2
	c2.5,0,3.7,0,5-1.2c2.5-2.5,2.5-6.2,0-8.7L399.5,192.8z"/>
<path fill="#00CCFF" d="M374.6,192.8c-2.5-2.5-6.2-2.5-8.7,0s-2.5,6.2,0,8.7l2.5,2.5c1.2,1.2,2.5,1.2,5,1.2s3.7,0,5-1.2
	c2.5-2.5,2.5-6.2,0-8.7L374.6,192.8z"/>
<path fill="#00CCFF" d="M411.9,113.3c2.5-2.5,3.7-6.2,1.2-8.7c-1.2-2.5-5-3.7-7.5-1.2c-6.2,5-12.4,16.2-2.5,28.6
	c1.2,1.2,3.7,2.5,5,2.5s2.5,0,3.7-1.2c2.5-2.5,3.7-6.2,1.2-8.7C406.9,118.2,410.7,114.5,411.9,113.3z"/>
<g>
	<g>
		<path fill="#FFFFFF" d="M829.1,167.5c-0.2-0.9-1.1-3.2-4.8-3.2h-8.2c-1.9,0-3.4,1.5-3.4,3.4s1.5,3.4,3.4,3.4h0.1
			c-7.5,4.1-19.8,10.1-31.1,15.1h-14.1c-1.9,0-3.4,1.5-3.4,3.4s1.5,3.4,3.4,3.4h7.7l-3.8,4.9H664.7l-3.4-4.9h88.9
			c1.9,0,3.4-1.5,3.4-3.4s-1.5-3.4-3.4-3.4h-95.4c-11.2-5.1-23.5-11-30.9-15.1h175.5c1.9,0,3.4-1.5,3.4-3.4s-1.5-3.4-3.4-3.4H615.9
			c-3.7,0-4.6,2.2-4.8,3.2c-0.6,3,1.9,5.1,7.5,8.3c3.3,1.9,8,4.4,13.9,7.3c10,4.9,20.1,9.5,20.2,9.5c0.1,0,0.1,0,0.2,0.1l7.3,10.5
			c0.6,0.9,1.7,1.5,2.8,1.5h113.7c1.1,0,2-0.5,2.7-1.3l8.3-10.8c2-0.9,11.1-5,20-9.4c5.9-2.9,10.6-5.4,14-7.3
			C827.2,172.5,829.8,170.5,829.1,167.5z"/>
	</g>
</g>
<path fill="#00CCFF" d="M691.8,140.2c-1,1.6-0.6,3.7,1,4.7c0.6,0.4,1.2,0.5,1.8,0.5c1.1,0,2.2-0.5,2.8-1.5
	c0.5-0.8,13.1-20.7,1.3-35.7c-8.2-10.5,3.4-24.7,3.5-24.9c1.2-1.4,1-3.6-0.4-4.7c-1.4-1.2-3.6-1-4.8,0.4c-0.2,0.2-3.8,4.6-6.1,10.7
	c-3.3,8.6-2.4,16.4,2.5,22.6C702.2,123.5,691.9,140,691.8,140.2z"/>
<path fill="#00CCFF" d="M739.2,140.2c-1,1.6-0.6,3.7,1,4.7c0.6,0.4,1.2,0.5,1.8,0.5c1.1,0,2.2-0.5,2.8-1.5
	c0.5-0.8,13.1-20.7,1.3-35.7c-8.2-10.4,3.4-24.7,3.5-24.9c1.2-1.4,1-3.6-0.4-4.8c-1.4-1.2-3.6-1-4.8,0.4c-0.2,0.2-3.8,4.6-6.1,10.7
	c-3.3,8.6-2.4,16.4,2.5,22.6C749.7,123.5,739.3,140,739.2,140.2z"/>
<path fill="#00CCFF" d="M714.8,143.9c-1.2,1.4-1,3.6,0.5,4.8c0.6,0.5,1.4,0.8,2.1,0.8c1,0,1.9-0.4,2.6-1.2c0.2-0.2,4.3-5.4,6.7-12.8
	c3.2-10.2,1.4-19.7-5.2-27.5c-9.5-11.5,3.5-28.5,3.7-28.7c1.1-1.5,0.9-3.6-0.6-4.7c-1.5-1.1-3.6-0.9-4.7,0.6
	c-0.7,0.9-16.6,21.5-3.5,37.2C728.4,126.8,715.3,143.2,714.8,143.9z"/>
<g>
	<path fill="#FFFFFF" d="M1122.3,192.4h-4.3c-2.2-57.4-48.5-103.7-105.9-105.9v-4.3h2.1c5.8,0,10.6-4.8,10.6-10.6
		s-4.8-10.6-10.6-10.6h-12.7c-5.8,0-10.6,4.8-10.6,10.6s4.8,10.6,10.6,10.6h2.1v4.3c-57.4,2.2-103.7,48.5-105.9,105.9h-4.3
		c-2.3,0-4.2,1.9-4.2,4.2s1.9,4.2,4.2,4.2h5.2l1.8,5.7c1.8,6.3,8.2,11.2,14.8,11.2h185.5c6.6,0,13-4.9,14.8-11.3l1.7-5.7h5.3
		c2.3,0,4.2-1.9,4.2-4.2S1124.6,192.4,1122.3,192.4z M999.3,71.5c0-1.1,1-2.1,2.1-2.1h12.7c1.1,0,2.1,1,2.1,2.1s-1,2.1-2.1,2.1
		h-12.7C1000.3,73.7,999.3,72.7,999.3,71.5z M1107.1,204.3c-0.7,2.6-3.9,5.1-6.6,5.1H915c-2.7,0-5.9-2.4-6.6-5.1c0,0,0-0.1,0-0.1
		l-1-3.3h168.3c2.3,0,4.2-1.9,4.2-4.2s-1.9-4.2-4.2-4.2H906.1c2.2-54.2,47-97.5,101.7-97.5c54.7,0,99.4,43.4,101.7,97.5h-16.9
		c-2.3,0-4.2,1.9-4.2,4.2s1.9,4.2,4.2,4.2h15.6L1107.1,204.3C1107.1,204.2,1107.1,204.3,1107.1,204.3z"/>
</g>
<path fill="#00CCFF" d="M1059,118.7c-2-1.3-4.6-0.7-5.9,1.3c-1.3,2-0.7,4.6,1.3,5.9c8.1,5.2,15.2,11.7,21.1,19.3
	c0.8,1.1,2.1,1.6,3.4,1.6c0.9,0,1.8-0.3,2.6-0.9c1.8-1.4,2.2-4.1,0.7-6C1075.6,131.6,1067.9,124.4,1059,118.7z"/>
<path fill="#00CCFF" d="M1044,110.8c-3.4-1.4-7-2.6-10.6-3.6c-2.3-0.6-4.6,0.7-5.2,3c-0.6,2.3,0.7,4.6,3,5.2c3.2,0.9,6.5,2,9.6,3.3
	c0.5,0.2,1.1,0.3,1.6,0.3c1.7,0,3.2-1,3.9-2.6C1047.2,114.2,1046.1,111.7,1044,110.8z"/>
<g>
	<path fill="#FFFFFF" d="M1201.8,159h-7.6c-1.2,0-2.3,0.6-2.9,1.5c-0.7,0.9-0.9,2.1-0.5,3.3l24.6,77.3c2,6.4,7.9,10.7,14.6,10.7h7
		c0,0,0,0,0,0c0,0,0,0,0,0h15.5c0,0,0,0,0,0c0,0,0,0,0,0h85.5c0,0,0,0,0,0c0,0,0,0,0,0h15.5c0,0,0,0,0,0c0,0,0,0,0,0h7
		c6.7,0,12.5-4.3,14.6-10.7l24.6-77.3c0.4-1.1,0.2-2.3-0.5-3.3l0,0c-0.7-0.9-1.8-1.5-2.9-1.5h-4.5 M1384.4,159h-97.2 M1255.7,244.5
		l-10.7-78.2h19.5l3.6,78.2C1268.1,244.5,1255.7,244.5,1255.7,244.5z M1239.8,244.5l-17.8-78.2h15.6l10.7,78.2
		C1248.3,244.5,1239.8,244.5,1239.8,244.5z M1271.8,166.3h14.7c0,0,0,0,0,0c0,0,0,0,0,0h5v78.2h-16.2
		C1275.4,244.5,1271.8,166.3,1271.8,166.3z M1268.4,159h-59.3 M1222.3,238.9l-23.1-72.6h15.4l17.8,78.2h-2.5
		C1226.4,244.5,1223.4,242.3,1222.3,238.9z M1368.1,238.9c-1.1,3.3-4.1,5.6-7.6,5.6h-2.5l12.2-53.8c0.4-2-0.8-3.9-2.7-4.4
		c-2-0.4-3.9,0.8-4.4,2.7l-12.6,55.4h-8.5l5.3-38.6c0.3-2-1.1-3.8-3.1-4.1c-2-0.3-3.8,1.1-4.1,3.1l-5.4,39.6h-12.4l1.1-23.4
		c0.1-2-1.5-3.7-3.5-3.8c-2-0.1-3.7,1.5-3.8,3.5l-1.1,23.7h-16.2v-78.2h19.7l-1.8,38.9c-0.1,2,1.5,3.7,3.5,3.8c0.1,0,0.1,0,0.2,0
		c1.9,0,3.5-1.5,3.6-3.5l1.8-39.3h19.5l-3.1,23.1c-0.3,2,1.1,3.8,3.1,4.1c0.2,0,0.3,0,0.5,0c1.8,0,3.4-1.3,3.6-3.1l3.3-24h15.6
		l-1.6,7.2c-0.4,2,0.8,3.9,2.7,4.4c0.3,0.1,0.5,0.1,0.8,0.1c1.7,0,3.2-1.1,3.5-2.8l2-8.8h15.4L1368.1,238.9L1368.1,238.9z"/>
</g>
<path fill="#00CCFF" d="M1390,158.3c0-0.4,0.1-0.9,0.1-1.3c0.4-6.2,0.9-14-2.5-21.2c-3.5-7.6-10.3-12.9-20.8-16.2
	c5.8-16.4,0-31.1-6.2-40.8c-9.8-15.4-26-26.7-36.5-28.8c-1.6-13.3-13-23.7-26.7-23.7c-14.9,0-27,12.1-27,26.9
	c0,5.7,1.8,11.2,5.1,15.8c-4.8,0.3-9.6,0.6-14.2,0.8c-9.1,0.4-17.8,0.8-24.1,2c-1.8,0.3-5.5,1.1-8.5,2.9c-0.2,0.1-0.4,0.1-0.5,0.2
	c-7.2,4-13.9,15.7-16.1,28.5c-1.6,9.2-0.6,17.2,2.8,23c-4.9,4.1-13.9,12.2-14.9,31.9"/>
<path fill="#FFFFFF" d="M1277.7,53.1c0-10.8,8.8-19.7,19.7-19.7c10.7,0,19.4,8.6,19.7,19.2c-3.1,9.9-16.8,13.7-32.4,15.5
	C1280.2,64.4,1277.7,59,1277.7,53.1L1277.7,53.1z"/>
<path fill="#FFFFFF" d="M1238.6,78.9c5.8-1.1,14.2-1.5,23.1-1.9c24.1-1.1,53.7-2.4,61.4-19.8c3.1,0.7,7.7,2.7,13.2,6.7
	c7.2,5.1,13.6,11.8,18.1,18.9c5.4,8.4,10.4,21.1,5.3,35.1c-7.6-1.7-18.3-3.4-30.5-5.5c-20.5-3.4-45.9-7.6-65.7-13
	c-9.6-2.6-31.9-9.5-31.9-17.3C1231.6,81.2,1233.4,79.8,1238.6,78.9z"/>
<path fill="#FFFFFF" d="M1285.5,158.3c-2.8-1.1-14.2-5.7-26.8-11.7c-18.7-8.8-31.2-16.5-36.1-22.1c-3.6-4.1-4.8-11.3-3.3-19.9l0,0
	c1.1-6.2,3.5-12.5,6.5-17.1c8.1,15.2,49.6,23.2,102.2,31.9c13.8,2.3,25.6,4.2,33,6c23.4,5.8,22.5,19.2,21.8,31
	c0,0.6-0.1,1.2-0.1,1.8"/>
<path fill="#FFFFFF" d="M1207.4,158.3c0.9-16.4,7.8-22.6,12.3-26.4c10.2,9.2,31.7,19.6,47,26.4"/>
<path fill="#00CCFF" d="M1297.3,41.7c-2,0-3.6,1.6-3.6,3.6c0,2,1.6,3.6,3.6,3.6c2.3,0,4.1,1.9,4.1,4.1c0,2,1.6,3.6,3.6,3.6
	c2,0,3.6-1.6,3.6-3.6C1308.8,46.8,1303.6,41.7,1297.3,41.7z"/>
<path fill="#00CCFF" d="M1304.6,130.6c2.7,0.4,5.3,0.8,7.8,1.2c0.2,0,0.4,0,0.6,0c1.8,0,3.3-1.3,3.6-3.1c0.3-2-1.1-3.8-3-4.2
	c-2.5-0.4-5.1-0.8-7.8-1.2c-2-0.3-3.8,1.1-4.1,3.1C1301.2,128.4,1302.6,130.2,1304.6,130.6L1304.6,130.6z"/>
<path fill="#00CCFF" d="M1327.8,134.2c38.7,6.5,39.2,9.4,39.7,12.7c0.3,1.8,1.8,3,3.6,3c0.2,0,0.4,0,0.6-0.1c2-0.3,3.3-2.2,3-4.2
	c-0.7-4.4-2.6-7.7-9.5-10.5c-6.1-2.5-16.9-4.9-36.2-8.2c-2-0.3-3.9,1-4.2,3C1324.5,132,1325.8,133.9,1327.8,134.2z"/>
<path fill="#00CCFF" d="M1326.3,75.6c1.6,1.2,3.2,2.4,4.6,3.6c0.7,0.6,1.5,0.9,2.4,0.9c1,0,2-0.4,2.7-1.2c1.3-1.5,1.2-3.8-0.3-5.1
	c-1.6-1.4-3.4-2.8-5.3-4.1c-1.6-1.2-3.9-0.7-5.1,0.9C1324.3,72.1,1324.7,74.4,1326.3,75.6L1326.3,75.6z"/>
<path fill="#00CCFF" d="M1344.2,103.6c0,2,1.6,3.6,3.6,3.6c2,0,3.6-1.6,3.6-3.6c0-1.9-0.4-8.9-5.2-17.4c-1-1.7-3.2-2.3-5-1.3
	c-1.7,1-2.3,3.2-1.3,5C1344.1,97.1,1344.2,103,1344.2,103.6z"/>
<g>
	<path fill="#FFFFFF" d="M1586.4,112.2h-73.2c-1,0-2,0.4-2.7,1.2c-0.7,0.8-1,1.8-0.9,2.8l7.1,60.8c-2.4,0.2-4.9,0.3-7.4,0.3
		c-2,0-3.6,1.6-3.6,3.6c0,2,1.6,3.6,3.6,3.6c2.8,0,5.6-0.1,8.3-0.3l0.4,3.5c0.3,3,2.1,5.5,4.5,6.9c-0.9,1.6-1.4,3.5-1.4,5.4
		c0,3,1.1,5.6,3,7.7c-1.9,2-3,4.7-3,7.7c0,3.2,1.3,6.1,3.5,8.1c-1.3,1.9-1.9,4.1-1.6,6.4l1.1,9.7c0.7,5.7,5.5,9.9,11.2,9.9h101.2
		c5.7,0,10.5-4.3,11.2-9.9l1.1-9.7c0.3-2.3-0.3-4.5-1.6-6.4c2.2-2,3.5-4.9,3.5-8.1c0-3-1.1-5.6-3-7.7c1.9-2,3-4.7,3-7.7
		c0-2-0.5-3.8-1.4-5.4c2.4-1.5,4.1-4,4.5-6.9l8.4-71.4c0.1-1-0.2-2-0.9-2.8v0c-0.7-0.8-1.7-1.2-2.7-1.2h-15.4 M1636.2,112.2h-26.3v0
		 M1601.9,112.2h-6 M1646.7,186.8c-0.1,1.1-1.1,2-2.2,2l-5,0h-7.7c-2,0-3.6,1.6-3.6,3.6c0,2,1.6,3.6,3.6,3.6h7.7
		c2.2,0,4.1,1.8,4.1,4.1s-1.8,4.1-4.1,4.1h-7.7c-2,0-3.6,1.6-3.6,3.6c0,2,1.6,3.6,3.6,3.6h7.7c2.2,0,4.1,1.8,4.1,4.1
		s-1.8,4.1-4.1,4.1h-7.7c-2,0-3.6,1.6-3.6,3.6c0,2,1.6,3.6,3.6,3.6h7.7c0.9,0,1.4,0.5,1.7,0.7c0.2,0.3,0.6,0.9,0.5,1.7l-1.1,9.7
		c-0.2,2-2,3.6-4,3.6h-101.2c-2.1,0-3.8-1.5-4-3.6l-1.1-9.7c-0.1-0.9,0.3-1.5,0.5-1.7c0.2-0.3,0.8-0.7,1.7-0.7h84.2
		c2,0,3.6-1.6,3.6-3.6c0-2-1.6-3.6-3.6-3.6h-84.2c-2.2,0-4.1-1.8-4.1-4.1s1.8-4.1,4.1-4.1h61.2c2,0,3.6-1.6,3.6-3.6
		c0-2-1.6-3.6-3.6-3.6h-61.2c-2.2,0-4.1-1.8-4.1-4.1s1.8-4.1,4.1-4.1h84.2c2,0,3.6-1.6,3.6-3.6c0-2-1.6-3.6-3.6-3.6h-84.2l-5,0
		c-1.1,0-2.1-0.8-2.2-2l-0.4-3.5c13.9-2.1,25-6.7,32.6-10.7c11.8-6.2,21.4-14.4,26.8-22.7c0.6,0.1,1.2,0.1,1.7,0.1
		c6.2,0,11.2-5,11.2-11.2s-5-11.2-11.2-11.2s-11.2,5-11.2,11.2c0,3,1.2,5.7,3.1,7.7c-7.8,11.4-27.7,25.6-53.9,29.6l-6.7-56.8h137.4
		L1646.7,186.8L1646.7,186.8z M1581.9,138.7c0-2.2,1.8-4.1,4.1-4.1s4.1,1.8,4.1,4.1c0,2.2-1.8,4.1-4.1,4.1S1581.9,141,1581.9,138.7z
		"/>
	<path fill="#FFFFFF" d="M1616.6,204h-7.7c-2,0-3.6,1.6-3.6,3.6c0,2,1.6,3.6,3.6,3.6h7.7c2,0,3.6-1.6,3.6-3.6
		C1620.2,205.6,1618.6,204,1616.6,204z"/>
</g>
<path fill="#00CCFF" d="M1639.2,112.2c0-7,0.5-14,1.5-20.9c0.1-0.2,0.1-0.5,0.1-0.8c1.3-8.2,3.4-16.4,6.2-24.3l1.5-4.2
	c3-1.2,5.3-3.6,6.4-6.7l2.6-7.2c2.1-5.8-1-12.3-6.8-14.4l-14.4-5.1c-2.8-1-5.9-0.9-8.6,0.4c-2.7,1.3-4.8,3.6-5.8,6.4l-2.6,7.2
	c-1.1,3.2-0.7,6.5,0.8,9.2l-1.5,4.2c-2.8,7.9-6.4,15.5-10.6,22.7c-0.2,0.2-0.3,0.4-0.4,0.7c-3.9,6.6-8.3,12.8-13.4,18.7l-0.5,0.6
	c0,0,0,0,0,0l-11.5,13.5"/>
<path fill="#FFFFFF" d="M1605.6,112.2l-5-10.5c3.5-4.2,6.8-8.6,9.8-13.2l5.6,11.9c0.6,1.3,1.9,2.1,3.2,2.1c0.5,0,1-0.1,1.5-0.3
	l11.9-5.6c-0.5,5.2-0.8,10.5-0.8,15.7"/>
<path fill="#FFFFFF" d="M1625.3,58.5l0.6-1.6c0.1,0,0.1,0.1,0.2,0.1l3.6,1.3c1.9,0.7,3.9-0.3,4.6-2.2c0.7-1.9-0.3-3.9-2.2-4.6
	l-3.6-1.3c-1-0.4-1.8-1.1-2.3-2.1c-0.5-1-0.5-2.1-0.2-3.1l2.6-7.2c0.4-1,1.1-1.8,2.1-2.3c1-0.5,2.1-0.5,3.1-0.2l14.4,5.1
	c2.1,0.8,3.2,3.1,2.5,5.2l-2.6,7.2c-0.5,1.4-1.7,2.4-3.1,2.6c-1.3,0.2-2.3,1.2-2.7,2.3c0,0,0,0,0,0.1l-2.1,5.9
	c-2.8,7.9-4.9,16-6.3,24.1l-12.9,6.1l-6.1-12.9C1619,74,1622.5,66.4,1625.3,58.5z"/>
<polyline fill="#FFFFFF" points="1591.7,112.2 1595.6,107.7 1597.7,112.2 "/>
<path fill="#00CCFF" d="M1637.4,180.1c0.1,0,0.3,0,0.4,0c1.8,0,3.3-1.3,3.6-3.2l2.7-23c0.2-2-1.2-3.8-3.1-4c-2-0.2-3.8,1.2-4,3.1
	l-2.7,23C1634,178.1,1635.4,179.9,1637.4,180.1L1637.4,180.1z"/>
<path fill="#00CCFF" d="M1641.9,141.8c0.1,0,0.3,0,0.4,0c1.8,0,3.3-1.3,3.6-3.2l0.9-7.7c0.2-2-1.2-3.8-3.1-4c-2-0.2-3.8,1.2-4,3.1
	l-0.9,7.7C1638.5,139.8,1640,141.6,1641.9,141.8L1641.9,141.8z"/>
</svg>
